<?xml version="1.0" encoding="UTF-8" standalone="no"?>
<svg width="82px" height="77px" viewBox="0 0 82 77" version="1.1" xmlns="http://www.w3.org/2000/svg" xmlns:xlink="http://www.w3.org/1999/xlink">
    <!-- Generator: sketchtool 41 (35326) - http://www.bohemiancoding.com/sketch -->
    <title>27B6FD69-36F3-4D53-BD62-B43170219321</title>
    <desc>Created with sketchtool.</desc>
    <defs>
        <path d="M837.191571,2119 C836.229431,2119 835.449353,2119.78008 835.449353,2120.74222 L835.449353,2135.55107 C835.449353,2136.51329 836.229431,2137.29328 837.191571,2137.29328 C838.153797,2137.29328 838.933788,2136.51329 838.933788,2135.55107 L838.933788,2120.74222 C838.933788,2119.78008 838.153797,2119 837.191571,2119 L837.191571,2119 Z M872.035919,2119 C871.073779,2119 870.293704,2119.78008 870.293704,2120.74222 L870.293704,2135.55107 C870.293704,2136.51329 871.07378,2137.29328 872.035919,2137.29328 C872.998146,2137.29328 873.778137,2136.51329 873.778137,2135.55107 L873.778137,2120.74222 C873.778137,2119.78008 872.998146,2119 872.035919,2119 Z M824.996048,2126.37802 C821.123534,2126.37802 818,2129.50139 818,2133.37416 L818,2142.39436 L891.173132,2142.39436 L891.173132,2133.37416 C891.173132,2129.50139 888.049511,2126.37802 884.177084,2126.37802 L878.97761,2126.37802 L875.161791,2126.37802 L875.161791,2130.22409 C876.230468,2131.18109 876.545447,2132.56955 876.545447,2134.11682 C876.545447,2137.00341 874.922773,2138.62635 872.035918,2138.62635 C869.149502,2138.62635 867.526393,2137.00341 867.526393,2134.11682 C867.526393,2132.56955 867.84172,2131.18109 868.910048,2130.22409 L868.910048,2126.37802 L840.290265,2126.37802 L840.290265,2130.19683 C841.375405,2131.15453 841.701099,2132.5557 841.701099,2134.11682 C841.701099,2137.00341 840.078425,2138.62635 837.191571,2138.62635 C834.305152,2138.62635 832.682042,2137.00341 832.682042,2134.11682 C832.682042,2132.58332 832.986568,2131.2074 834.038519,2130.25127 L834.038519,2126.37802 L824.996048,2126.37802 Z M818,2144.44454 L818,2181.00386 C818,2184.87664 821.123447,2188 824.996048,2188 L884.177085,2188 C888.049511,2188 891.173133,2184.87664 891.173133,2181.00386 L891.173133,2144.44454 L818,2144.44454 Z" id="path-1"></path>
        <filter x="-50%" y="-50%" width="200%" height="200%" filterUnits="objectBoundingBox" id="filter-2">
            <feOffset dx="0" dy="2" in="SourceAlpha" result="shadowOffsetOuter1"></feOffset>
            <feGaussianBlur stdDeviation="2" in="shadowOffsetOuter1" result="shadowBlurOuter1"></feGaussianBlur>
            <feColorMatrix values="0 0 0 0 0   0 0 0 0 0   0 0 0 0 0  0 0 0 0.5 0" type="matrix" in="shadowBlurOuter1"></feColorMatrix>
        </filter>
    </defs>
    <g id="Page-1" stroke="none" stroke-width="1" fill="none" fill-rule="evenodd">
        <g id="SU-Homepage-1.0" transform="translate(-814.000000, -2117.000000)">
            <g id="Shape-Copy">
                <use fill="black" fill-opacity="1" filter="url(#filter-2)" xlink:href="#path-1"></use>
                <use fill="#E4C800" fill-rule="evenodd" xlink:href="#path-1"></use>
            </g>
        </g>
    </g>
</svg>