<?xml version="1.0" encoding="UTF-8" standalone="no"?>
<svg width="93px" height="70px" viewBox="0 0 93 70" version="1.1" xmlns="http://www.w3.org/2000/svg" xmlns:xlink="http://www.w3.org/1999/xlink">
    <!-- Generator: sketchtool 41 (35326) - http://www.bohemiancoding.com/sketch -->
    <title>34EB5BE2-38C8-4FDB-B9C7-C6C394CE5173</title>
    <desc>Created with sketchtool.</desc>
    <defs></defs>
    <g id="Page-1" stroke="none" stroke-width="1" fill="none" fill-rule="evenodd">
        <g id="SU-Homepage-1.0" transform="translate(-673.000000, -1597.000000)" fill="#E4C800">
            <g id="Group-16" transform="translate(0.000000, 1517.000000)">
                <g id="Group-14" transform="translate(590.000000, 80.000000)">
                    <g id="Group-12" transform="translate(83.765432, 0.000000)">
                        <g id="noun_707699_cc">
                            <g id="Group">
                                <g>
                                    <path d="M41.3690317,41.2435669 C41.4026104,43.9746393 43.3837573,46.1796445 45.8014279,46.1572587 C46.7864049,46.1460657 47.603488,47.0303064 47.6146809,48.1384055 C47.6258739,49.2465045 46.8311766,50.164324 45.8461996,50.1755169 C44.8612227,50.1867098 44.0441395,49.2912762 44.0329466,48.1719842 L44.0329466,47.8361966 L41.4361892,47.8585825 L41.4473821,48.1943701 C41.458575,49.604678 41.9958352,50.8918638 42.8688829,51.7984903 L24.7027741,40.0683103 L24.7027741,32.4907036 L46.9542987,32.4907036 L46.9542987,33.4532947 L44.3575413,33.4756805 L44.39112,36.4977689 C42.577867,37.1357653 41.3466458,39.0497546 41.3690317,41.2435669 Z" id="Shape"></path>
                                    <polygon id="Shape" points="54.9460434 30.2521196 36.7687416 30.2521196 45.7454633 24.1295924"></polygon>
                                    <polygon id="Shape" points="69.3401383 41.2995315 69.3401383 68.8900788 48.028819 55.1339804 68.3887401 41.9039491"></polygon>
                                    <polygon id="Shape" points="66.6538376 69.8190912 25.273613 69.8190912 45.935743 56.443552 45.9693217 56.4659378"></polygon>
                                    <polygon id="Shape" points="43.8762457 55.1115945 22.5985051 68.8900788 22.5985051 41.3778819"></polygon>
                                    <rect id="Rectangle-path" x="76.5819575" y="45.1834746" width="15.5357727" height="2.23858397"></rect>
                                    <rect id="Rectangle-path" transform="translate(79.206577, 27.078374) rotate(239.973695) translate(-79.206577, -27.078374) " x="78.0883992" y="19.3104495" width="2.23635634" height="15.5358488"></rect>
                                    <polygon id="Shape" points="69.9781348 6.83653131 62.2102484 20.2904209 60.2738733 19.171129 68.0305667 5.71723933"></polygon>
                                    <rect id="Rectangle-path" x="44.7716793" y="0.0872006545" width="2.23858397" height="15.5245798"></rect>
                                    <path d="M46.9542987,32.4907036 L46.9542987,33.4532947 L46.9878774,36.4641901 C48.8235163,37.0686078 50.1107021,38.9602112 50.1330879,41.1540235 L50.1330879,41.4898111 L47.5363305,41.5233899 L47.5363305,41.1764093 C47.5251376,40.0571174 46.7192474,39.1616838 45.7342704,39.1728767 C44.7492935,39.1840696 43.9545962,40.101889 43.9657891,41.221181 C43.976982,42.3180872 44.8052581,43.2359066 45.7678492,43.2247137 C48.1855199,43.1911349 50.1778596,45.3849472 50.2002454,48.1048267 C50.2226313,49.9516585 49.3271977,51.6082106 47.9392756,52.4812584 L66.866503,40.2250112 L66.866503,32.4907036 L46.9542987,32.4907036 Z" id="Shape"></path>
                                    <polygon id="Shape" points="23.7513759 5.71723933 31.5080693 19.171129 29.5716942 20.2904209 21.8038078 6.83653131"></polygon>
                                    <rect id="Rectangle-path" transform="translate(12.581282, 27.076122) rotate(-59.973695) translate(-12.581282, -27.076122) " x="11.4631036" y="19.3081974" width="2.23635634" height="15.5358488"></rect>
                                    <rect id="Rectangle-path" x="0" y="45.0267738" width="15.5357727" height="2.23858397"></rect>
                                </g>
                            </g>
                        </g>
                    </g>
                </g>
            </g>
        </g>
    </g>
</svg>