<?xml version="1.0" encoding="UTF-8" standalone="no"?>
<svg width="69px" height="70px" viewBox="0 0 69 70" version="1.1" xmlns="http://www.w3.org/2000/svg" xmlns:xlink="http://www.w3.org/1999/xlink">
    <!-- Generator: sketchtool 41 (35326) - http://www.bohemiancoding.com/sketch -->
    <title>F7DE663F-D608-4E09-AD4D-065C05655171</title>
    <desc>Created with sketchtool.</desc>
    <defs></defs>
    <g id="Page-1" stroke="none" stroke-width="1" fill="none" fill-rule="evenodd">
        <g id="SU-Homepage-1.0" transform="translate(-306.000000, -1597.000000)" fill="#E4C800">
            <g id="Group-16" transform="translate(0.000000, 1517.000000)">
                <g id="Group-15" transform="translate(210.000000, 80.000000)">
                    <g id="Group-11" transform="translate(95.853659, 0.000000)">
                        <path d="M36.932616,14.882549 C36.9134003,15.0856863 36.8873219,15.2860784 36.8873219,15.4919608 C36.8873219,20.2890196 40.6110473,24.1747059 45.2022238,24.1747059 C49.7920277,24.1747059 53.5130081,20.2876471 53.5130081,15.4919608 C53.5130081,15.2847059 53.4841846,15.0843137 53.4704591,14.882549 L36.932616,14.882549 L36.932616,14.882549 Z" id="Shape"></path>
                        <path d="M55.7681062,11.1931373 C55.2245768,6.3727451 52.4396748,2.41980392 48.7118317,0.872941176 L48.7118317,8.28882353 C48.7118317,8.72803922 48.3549689,9.08352941 47.9171258,9.08352941 C47.4779101,9.08352941 47.1224199,8.72803922 47.1224199,8.28882353 L47.1224199,0.373333333 C46.5075179,0.240196078 45.8761454,0.160588235 45.2283022,0.160588235 C44.5859493,0.160588235 43.960067,0.241568627 43.3492826,0.374705882 L43.3492826,8.28882353 C43.3492826,8.72803922 42.9937924,9.08352941 42.5559493,9.08352941 C42.1167336,9.08352941 41.7612434,8.72803922 41.7612434,8.28882353 L41.7612434,0.875686275 C38.040263,2.43078431 35.2375179,6.39882353 34.6583022,11.1931373 L31.9118317,11.1931373 L31.9118317,13.2588235 L58.5228121,13.2588235 L58.5228121,11.1931373 L55.7681062,11.1931373 Z" id="Shape"></path>
                        <path d="M56.3981062,26.3296078 L52.8239885,26.3282353 L47.3063415,38.5919608 L47.3063415,26.0866667 L43.4934003,26.0866667 L43.4934003,38.4670588 L38.0292826,26.3213725 L34.4592826,26.32 C28.6437924,26.32 24.1788905,30.5213725 23.2290866,36.1227451 L18.650263,20.2190196 C18.5390866,19.8347059 18.2316356,19.5396078 17.8432042,19.4462745 L10.2928121,17.6276471 C7.91281205,17.3572549 5.99124342,17.7196078 4.42516499,18.7394118 C2.58045911,19.9390196 1.27791009,21.645098 0.757714012,23.547451 C0.271831659,25.324902 0.53673362,27.1764706 1.42751793,28.8523529 C1.43849833,28.8811765 1.43438068,28.91 1.44810617,28.9388235 L11.7243807,50.9147059 L11.0134003,51.2647059 C5.84987088,53.802549 9.53653754,61.2980392 14.7014395,58.757451 L15.2641846,58.4815686 L18.8437924,66.134902 C19.4216356,67.3729412 20.5320277,68.3584314 21.8894787,68.8401961 C22.527714,69.0666667 23.2043807,69.1778431 23.8988905,69.1778431 C24.9639885,69.1778431 26.0716356,68.9143137 27.1422238,68.3913725 C30.2153611,66.8911765 31.5837924,63.727451 30.325165,61.0303922 L30.2730081,60.9205882 C30.2908513,60.775098 30.2812434,60.6241176 30.2386944,60.4758824 L29.4879101,57.8666667 C30.002616,57.1913725 30.3498709,56.2992157 30.3498709,55.132549 L30.3498709,39.1190196 L32.6790866,39.1190196 L32.6749689,67.6337255 L58.6257532,67.6337255 L58.6353611,39.1190196 L60.915165,39.1190196 L60.915165,63.5847059 C60.915165,69.1641176 68.1883022,69.1641176 68.1732042,63.5847059 L68.1732042,38.527451 C68.1732042,32.367451 63.6094787,26.3296078 56.3981062,26.3296078 Z M3.61673362,28.264902 C2.76849833,26.9596078 2.52281205,25.5307843 2.90300813,24.1335294 C3.27771401,22.7596078 4.24947872,21.5064706 5.63712578,20.6047059 C6.76947872,19.8676471 8.16398852,19.6247059 9.90575323,19.8127451 L16.6916356,21.4556863 L24.4959493,48.5635294 L13.3755571,24.78 C13.3563415,24.7388235 13.3220277,24.7127451 13.2986944,24.6756863 C13.1614395,24.3256863 12.9871258,23.9839216 12.7743807,23.6558824 C11.3524199,21.4694118 8.41379244,20.8476471 6.22457676,22.2709804 C4.37300813,23.4760784 3.84594931,25.9631373 5.0496748,27.817451 C6.08457676,29.4013725 8.21065519,29.8515686 9.79320421,28.8235294 C11.1616356,27.9313725 11.5514395,26.0907843 10.6634003,24.7223529 C10.4959493,24.4643137 10.290067,24.2419608 10.0512434,24.0607843 C10.3875179,24.2529412 10.682616,24.5233333 10.907714,24.8692157 C11.9357532,26.4490196 11.4869297,28.5696078 9.90987088,29.594902 C7.80438068,30.9619608 4.98241989,30.3635294 3.61673362,28.264902 Z M26.167714,66.3915686 C24.9392826,66.9913725 23.6820277,67.1107843 22.6320277,66.7429412 C21.8332042,66.4588235 21.1867336,65.8960784 20.8586944,65.1933333 L17.2612434,57.5001961 L17.4479101,57.4082353 C22.6128121,54.8731373 18.9261454,47.3735294 13.7612434,49.9168627 L13.7241846,49.9360784 L5.43947872,32.2205882 C7.29516499,32.7901961 9.37183166,32.5952941 11.1232042,31.4601961 C11.9728121,30.9056863 12.6028121,30.1507843 13.0365375,29.3052941 L28.3088905,61.9705882 C29.0404591,63.5380392 28.1194787,65.4390196 26.167714,66.3915686 Z" id="Shape"></path>
                    </g>
                </g>
            </g>
        </g>
    </g>
</svg>